<svg xmlns="http://www.w3.org/2000/svg"
     width="16"
     height="16"
     viewBox="0 0 16 16"
     fill="none">
    <path d="M8 1.5C5.1 1.5 2.75 3.85 2.75 6.75C2.75 8.55 3.66 10.14 5.04 11.08C5.48 11.39 5.75 11.88 5.75 12.42V12.75C5.75 13.44 6.31 14 7 14H9C9.69 14 10.25 13.44 10.25 12.75V12.42C10.25 11.88 10.52 11.39 10.96 11.08C12.34 10.14 13.25 8.55 13.25 6.75C13.25 3.85 10.9 1.5 8 1.5Z"
          fill="#3B82F6"/>
    <rect x="6.2" y="14.2" width="3.6" height="1.3" rx="0.6" fill="#2563EB"/>
    <path d="M8 3.9V5.4" stroke="#DBEAFE" stroke-width="1" stroke-linecap="round"/>
    <path d="M6.95 4.55H9.05" stroke="#DBEAFE" stroke-width="1" stroke-linecap="round"/>
</svg>
